<svg width="448" height="316" viewBox="0 0 448 316" fill="none" xmlns="http://www.w3.org/2000/svg">
<g opacity="0.12">
<path d="M-138.946 185.035H-220.383V183.035H-139.774L-130.328 173.587H-101.162L-70.1415 142.565H79.616L117.447 104.736L118.86 106.151L80.4439 144.565H-69.3134L-100.334 175.587H-129.499L-138.946 185.035Z" fill="white"/>
<path d="M115.361 102.917C116.831 101.449 119.211 101.449 120.68 102.917C122.147 104.385 122.147 106.765 120.68 108.233C119.211 109.703 116.831 109.703 115.361 108.233C113.895 106.765 113.895 104.385 115.361 102.917Z" fill="white"/>
<path d="M227.351 260.093H-81.5504L-147.214 194.429H-197.256L-213.447 210.619L-214.861 209.205L-198.084 192.429H-146.386L-80.7222 258.092H226.521L287.139 197.477H387.384V199.477H287.967L227.351 260.093Z" fill="white"/>
<path d="M387.196 194.717C389.273 194.717 390.956 196.401 390.956 198.477C390.956 200.553 389.273 202.237 387.196 202.237C385.12 202.237 383.437 200.553 383.437 198.477C383.437 196.401 385.12 194.717 387.196 194.717Z" fill="white"/>
<path d="M-17.6753 259.8L-19.0895 258.386L16.861 222.436H183.735L227.236 178.933H358.857V180.933H228.064L184.563 224.436H17.6892L-17.6753 259.8Z" fill="white"/>
<path d="M358.671 183.692C360.747 183.692 362.431 182.009 362.431 179.932C362.431 177.856 360.747 176.172 358.671 176.172C356.595 176.172 354.911 177.856 354.911 179.932C354.911 182.009 356.595 183.692 358.671 183.692Z" fill="white"/>
<path d="M-30.804 223.009H-118.221V221.008H-31.6327L7.58862 181.787H156.633L213.331 125.092H425.895V127.092H214.159L157.463 183.787H8.41728L-30.804 223.009Z" fill="white"/>
<path d="M425.707 129.852C427.783 129.852 429.465 128.168 429.465 126.092C429.465 124.016 427.783 122.332 425.707 122.332C423.629 122.332 421.947 124.016 421.947 126.092C421.947 128.168 423.629 129.852 425.707 129.852Z" fill="white"/>
<path d="M-42.9264 205.893H-135.334V203.893H-43.7545L-9.16757 169.305H124.952V171.305H-8.33944L-42.9264 205.893Z" fill="white"/>
<path d="M124.764 174.065C126.84 174.065 128.523 172.381 128.523 170.305C128.523 168.229 126.84 166.545 124.764 166.545C122.688 166.545 121.004 168.229 121.004 170.305C121.004 172.381 122.688 174.065 124.764 174.065Z" fill="white"/>
<path d="M-24.428 144.607L-25.842 143.192L16.5069 100.844H90.3133L115.807 75.3521H325.343V77.3521H116.635L91.1413 102.844H17.335L-24.428 144.607Z" fill="white"/>
<path d="M325.155 80.1121C327.231 80.1121 328.913 78.4281 328.913 76.3521C328.913 74.2761 327.231 72.5921 325.155 72.5921C323.077 72.5921 321.395 74.2761 321.395 76.3521C321.395 78.4281 323.077 80.1121 325.155 80.1121Z" fill="white"/>
<path d="M20.21 144.181L18.796 142.768L36.4726 125.092H64.336V127.092H37.3007L20.21 144.181Z" fill="white"/>
<path d="M64.148 129.852C66.2253 129.852 67.9093 128.168 67.9093 126.092C67.9093 124.016 66.2253 122.332 64.148 122.332C62.0733 122.332 60.3893 124.016 60.3893 126.092C60.3893 128.168 62.0733 129.852 64.148 129.852Z" fill="white"/>
<path d="M183.567 157.401H141.659L124.279 140.021L125.692 138.608L142.487 155.401H183.567V157.401Z" fill="white"/>
<path d="M127.779 136.789C126.309 135.321 123.928 135.321 122.461 136.789C120.993 138.257 120.993 140.639 122.461 142.107C123.928 143.575 126.309 143.575 127.779 142.107C129.245 140.639 129.245 138.257 127.779 136.789Z" fill="white"/>
<path d="M178.855 200.189H91.7387L75.3347 183.781L76.748 182.367L92.5667 198.189H178.027L232.225 143.991H311.079V145.991H233.053L178.855 200.189Z" fill="white"/>
<path d="M310.892 148.751C312.967 148.751 314.651 147.067 314.651 144.991C314.651 142.915 312.967 141.231 310.892 141.231C308.815 141.231 307.132 142.915 307.132 144.991C307.132 147.067 308.815 148.751 310.892 148.751Z" fill="white"/>
<path d="M217.365 245.829H71.0587L49.3929 224.163L50.8075 222.749L71.8867 243.829H216.537L254.011 206.353L255.424 207.768L217.365 245.829Z" fill="white"/>
<path d="M257.243 209.852C258.711 208.384 258.711 206.003 257.243 204.536C255.775 203.067 253.393 203.067 251.925 204.536C250.457 206.004 250.459 208.384 251.925 209.852C253.395 211.32 255.775 211.32 257.243 209.852Z" fill="white"/>
<path d="M276.849 100.351H165.193L142.079 77.2361L143.493 75.8228L166.021 98.3508H276.849V100.351Z" fill="white"/>
<path d="M276.661 103.111C278.739 103.111 280.421 101.427 280.421 99.3507C280.421 97.2747 278.739 95.5907 276.661 95.5907C274.585 95.5907 272.903 97.2747 272.903 99.3507C272.903 101.427 274.585 103.111 276.661 103.111Z" fill="white"/>
<path d="M288.972 126.444L287.559 125.029L303.54 109.048H389.523V111.048H304.368L288.972 126.444Z" fill="white"/>
<path d="M389.336 113.808C391.412 113.808 393.096 112.124 393.096 110.048C393.096 107.972 391.412 106.288 389.336 106.288C387.26 106.288 385.576 107.972 385.576 110.048C385.576 112.124 387.26 113.808 389.336 113.808Z" fill="white"/>
<path d="M-27.4176 246.899H-94.152V244.899H-28.2457L19.623 197.029H56.3106V199.029H20.4506L-27.4176 246.899Z" fill="white"/>
<path d="M56.124 201.788C58.1987 201.788 59.8827 200.105 59.8827 198.029C59.8827 195.952 58.1987 194.269 56.124 194.269C54.0467 194.269 52.3627 195.952 52.3627 198.029C52.3627 200.105 54.0467 201.788 56.124 201.788Z" fill="white"/>
<path d="M416.784 184.711L397.673 165.601H271.804L251.901 145.699L253.315 144.284L272.632 163.601H398.501L418.197 183.297L416.784 184.711Z" fill="white"/>
<path d="M414.7 186.529C416.168 187.997 418.549 187.997 420.016 186.529C421.485 185.061 421.484 182.68 420.016 181.212C418.548 179.744 416.168 179.744 414.699 181.212C413.231 182.68 413.231 185.061 414.7 186.529Z" fill="white"/>
<path d="M-174.501 175.589H-209.181L-227 157.771L-225.585 156.357L-208.352 173.589H-175.329L-107.936 106.197H-58.73L-6.31335 53.7828H62.9093V55.7828H-5.48521L-57.9019 108.197H-107.108L-174.501 175.589Z" fill="white"/>
<path d="M62.7213 51.0214C64.7986 51.0214 66.4813 52.7054 66.4813 54.7814C66.4813 56.8574 64.7986 58.5414 62.7213 58.5414C60.6453 58.5414 58.9626 56.8574 58.9626 54.7814C58.9626 52.7054 60.6453 51.0214 62.7213 51.0214Z" fill="white"/>
<path d="M37.2991 87.5148H-37.6389V85.5148H36.4711L51.9813 70.0041H94.5907L101.491 63.1068L102.905 64.5201L95.4187 72.0041H52.8093L37.2991 87.5148Z" fill="white"/>
<path d="M104.724 66.6054C106.191 65.1374 106.191 62.7561 104.724 61.2881C103.256 59.8187 100.875 59.8187 99.4067 61.2881C97.9387 62.7547 97.9387 65.1361 99.4067 66.6041C100.873 68.0721 103.255 68.0721 104.724 66.6054Z" fill="white"/>
<path d="M353.049 71.5921L340.623 59.1668H202.808L183.735 40.0908H102.193L70.7533 71.5334L69.34 70.1188L101.365 38.0908H184.563L203.636 57.1668H341.451L354.464 70.1775L353.049 71.5921Z" fill="white"/>
<path d="M350.965 73.4108C352.433 74.8788 354.813 74.8788 356.283 73.4108C357.749 71.9414 357.749 69.5601 356.281 68.0934C354.813 66.6254 352.432 66.6254 350.965 68.0934C349.496 69.5614 349.497 71.9428 350.965 73.4108Z" fill="white"/>
<path d="M178.421 129.983L170.897 122.457H102.137V120.457H171.725L179.836 128.568L178.421 129.983Z" fill="white"/>
<path d="M176.337 131.801C177.804 133.269 180.187 133.269 181.653 131.801C183.123 130.333 183.123 127.952 181.653 126.484C180.187 125.016 177.804 125.016 176.337 126.484C174.868 127.952 174.868 130.333 176.337 131.801Z" fill="white"/>
<path d="M-49.9176 189.443H-107.913L-122.006 175.351L-120.592 173.936L-107.085 187.443H-50.7456L-21.066 157.763H59.5587V159.763H-20.2378L-49.9176 189.443Z" fill="white"/>
<path d="M59.3706 162.523C61.4466 162.523 63.1306 160.84 63.1306 158.763C63.1306 156.687 61.4466 155.004 59.3706 155.004C57.2946 155.004 55.6106 156.687 55.6106 158.763C55.6106 160.84 57.2946 162.523 59.3706 162.523Z" fill="white"/>
<path d="M173.168 211.711H116.456L104.389 199.644L105.803 198.229L117.284 209.711H173.168V211.711Z" fill="white"/>
<path d="M172.979 214.471C175.056 214.471 176.74 212.787 176.74 210.711C176.74 208.635 175.056 206.952 172.979 206.952C170.904 206.952 169.22 208.635 169.22 210.711C169.22 212.787 170.904 214.471 172.979 214.471Z" fill="white"/>
<path d="M181.928 58.6774H142.155L123.336 39.8547L124.749 38.4414L142.983 56.6774H181.928V58.6774Z" fill="white"/>
<path d="M181.741 61.4374C183.817 61.4374 185.501 59.7534 185.501 57.6774C185.501 55.6014 183.817 53.9175 181.741 53.9175C179.665 53.9175 177.981 55.6014 177.981 57.6774C177.981 59.7534 179.665 61.4374 181.741 61.4374Z" fill="white"/>
<path d="M219.792 212.588H196.452V210.588H218.964L238.823 190.728H273.34V192.728H239.651L219.792 212.588Z" fill="white"/>
<path d="M273.152 195.488C275.228 195.488 276.911 193.804 276.911 191.728C276.911 189.652 275.228 187.968 273.152 187.968C271.076 187.968 269.392 189.652 269.392 191.728C269.392 193.804 271.076 195.488 273.152 195.488Z" fill="white"/>
<path d="M262.387 112.561H212.537L200.307 100.329L201.721 98.9161L213.365 110.561H262.387V112.561Z" fill="white"/>
<path d="M262.2 115.32C264.276 115.32 265.96 113.636 265.96 111.56C265.96 109.484 264.276 107.8 262.2 107.8C260.124 107.8 258.44 109.484 258.44 111.56C258.44 113.636 260.124 115.32 262.2 115.32Z" fill="white"/>
<path d="M261.261 315.975H9.8558L-45.927 260.192L-44.5123 258.777L10.6839 313.975H260.433L299.277 275.132H430.652L444.919 289.4L443.505 290.815L429.824 277.132H300.105L261.261 315.975Z" fill="white"/>
<path d="M441.42 292.632C442.889 294.1 445.269 294.1 446.737 292.633C448.205 291.165 448.205 288.784 446.737 287.316C445.271 285.846 442.889 285.846 441.42 287.315C439.952 288.784 439.952 291.164 441.42 292.632Z" fill="white"/>
<path d="M271.191 281.22H154.712L133.464 259.974L134.879 258.558L155.54 279.22H270.363L312.667 236.916L314.08 238.331L271.191 281.22Z" fill="white"/>
<path d="M315.901 240.415C317.368 238.946 317.368 236.565 315.901 235.098C314.432 233.629 312.051 233.629 310.583 235.098C309.116 236.565 309.116 238.946 310.583 240.415C312.051 241.883 314.432 241.883 315.901 240.415Z" fill="white"/>
<path d="M285.648 241.355H245.808V239.355H284.82L306.505 217.671H349.127V219.671H307.333L285.648 241.355Z" fill="white"/>
<path d="M348.939 222.429C351.016 222.429 352.699 220.747 352.699 218.671C352.699 216.593 351.016 214.911 348.939 214.911C346.863 214.911 345.18 216.593 345.18 218.671C345.18 220.747 346.863 222.429 348.939 222.429Z" fill="white"/>
<path d="M338.949 276.984L337.535 275.569L363.453 249.65H389.867V251.65H364.281L338.949 276.984Z" fill="white"/>
<path d="M389.679 254.41C391.756 254.41 393.44 252.725 393.44 250.65C393.44 248.574 391.756 246.889 389.679 246.889C387.604 246.889 385.92 248.574 385.92 250.65C385.92 252.725 387.604 254.41 389.679 254.41Z" fill="white"/>
<path d="M97.2787 300.013L82.8667 285.603H-19.5201V283.603H83.6947L98.692 298.6L97.2787 300.013Z" fill="white"/>
<path d="M95.1947 301.832C96.6641 303.3 99.0441 303.3 100.513 301.832C101.98 300.364 101.98 297.983 100.513 296.515C99.0441 295.046 96.6641 295.046 95.1947 296.515C93.7281 297.983 93.7281 300.364 95.1947 301.832Z" fill="white"/>
<path d="M209.819 296.991H130.18L93.088 259.899L94.5027 258.486L131.008 294.991H209.819V296.991Z" fill="white"/>
<path d="M209.632 299.751C211.707 299.751 213.391 298.067 213.391 295.991C213.391 293.915 211.707 292.231 209.632 292.231C207.555 292.231 205.871 293.915 205.871 295.991C205.871 298.067 207.555 299.751 209.632 299.751Z" fill="white"/>
<path d="M235.235 58.7121L233.82 57.2988L264.523 26.5974H393.611L416.785 3.42141L418.199 4.83609L394.439 28.5974H265.352L235.235 58.7121Z" fill="white"/>
<path d="M420.017 6.92141C421.487 5.45207 421.487 3.07209 420.017 1.60276C418.551 0.134756 416.169 0.134756 414.701 1.60276C413.232 3.07209 413.232 5.45207 414.701 6.92007C416.169 8.38807 418.551 8.38807 420.017 6.92141Z" fill="white"/>
<path d="M209.116 132.135C208.207 132.093 207.304 132.051 206.413 132.008L213.331 125.092H287.621L288.972 126.444L290.324 125.092H415.057C416.089 125.472 416.625 125.861 416.625 126.259C416.625 126.54 416.356 126.819 415.831 127.092H214.159L209.116 132.135Z" fill="white"/>
<path d="M288.972 126.444L287.621 125.092L287.559 125.029L293.769 118.819C294.712 118.821 295.651 118.824 296.589 118.827L290.324 125.092L288.972 126.444Z" fill="white"/>
<path d="M182.501 130.504C179.901 130.288 177.496 130.063 175.299 129.829C175.143 128.987 175.276 128.099 175.701 127.329C177.869 127.141 179.931 126.94 181.875 126.725C182.777 127.797 182.985 129.255 182.501 130.504Z" fill="white"/>
<path d="M-73.3931 148.645C-74.2926 148.588 -75.18 148.531 -76.0493 148.473L-70.1415 142.565H-25.2149L-25.842 143.192L-24.4691 144.565H-69.3134L-73.3931 148.645ZM80.444 144.565H-24.3868L-22.3868 142.565H18.9986L18.796 142.768L20.21 144.181L21.8266 142.565H79.616L85.048 137.133C85.9653 137.164 86.8787 137.195 87.7827 137.227L80.444 144.565Z" fill="white"/>
<path d="M20.21 144.181L18.796 142.768L18.9987 142.565L25.4148 136.149C26.36 136.151 27.296 136.153 28.2362 136.156L21.8267 142.565L20.21 144.181Z" fill="white"/>
<path d="M131.643 147.385L126.976 142.719C127.263 142.556 127.533 142.352 127.779 142.107C128.023 141.861 128.227 141.592 128.389 141.305L134.208 147.123C133.381 147.212 132.529 147.299 131.643 147.385Z" fill="white"/>
<path d="M125.119 143.208C124.157 143.208 123.195 142.84 122.461 142.107C121.597 141.243 121.243 140.064 121.395 138.94C124.052 139.132 126.555 139.333 128.877 139.54C128.863 140.151 128.7 140.759 128.389 141.305C128.227 141.592 128.023 141.861 127.779 142.107C127.533 142.352 127.263 142.556 126.976 142.719C126.401 143.044 125.76 143.208 125.119 143.208Z" fill="white"/>
<path d="M97.3973 127.613C96.508 127.545 95.6347 127.476 94.7773 127.405L107.545 114.637C108.523 114.588 109.511 114.543 110.512 114.499L104.552 120.457H102.137V122.457H102.552L97.3973 127.613Z" fill="white"/>
<path d="M171.555 123.116L170.897 122.457H102.137V120.457H104.552H171.725L174.087 122.819C173.205 122.917 172.363 123.016 171.555 123.116Z" fill="white"/>
<path d="M3.30583 188.899C2.3897 188.861 1.48918 188.824 0.591309 188.785L7.58864 181.787H145.033C147.797 182.444 152.065 183.065 157.608 183.641L157.463 183.787H78.168L76.748 182.367L75.3346 183.781L75.34 183.787H8.4173L3.30583 188.899Z" fill="white"/>
<path d="M81.7947 190.244L75.34 183.787L75.3347 183.781L76.748 182.367L78.1681 183.787L84.6147 190.236C83.676 190.239 82.74 190.241 81.7947 190.244ZM189.836 186.38L190.351 185.865C191.244 185.905 192.147 185.947 193.059 185.985L193.024 186.021C192.016 186.143 190.952 186.263 189.836 186.38Z" fill="white"/>
<path d="M190.024 260.093H136.412L134.879 258.558L133.464 259.974L133.584 260.093H96.1093L94.5026 258.486L93.088 259.899L93.2813 260.093H-43.1972L-44.5123 258.777L-45.828 260.093H-64.9035C-65.5999 259.779 -65.9592 259.459 -65.9592 259.133C-65.9592 258.78 -65.5343 258.433 -64.7134 258.092H-18.7962L-19.0895 258.386L-17.6754 259.8L-15.968 258.092H189.833C190.655 258.433 191.079 258.78 191.079 259.133C191.079 259.459 190.72 259.779 190.024 260.093Z" fill="white"/>
<path d="M138.629 265.138L133.584 260.093L133.464 259.974L134.879 258.558L136.412 260.093L141.339 265.019C140.447 265.058 139.54 265.099 138.629 265.138Z" fill="white"/>
<path d="M99.4587 266.269L93.2814 260.093L93.088 259.899L94.5027 258.486L96.1094 260.093L102.237 266.22C101.315 266.238 100.391 266.253 99.4587 266.269Z" fill="white"/>
<path d="M233.94 250.675L245.388 239.227C246.169 239.269 246.937 239.312 247.7 239.355H245.808V241.355H246.088L236.899 250.544C235.923 250.589 234.937 250.632 233.94 250.675Z" fill="white"/>
<path d="M217.365 245.829H71.0586L64.7639 239.536C65.6426 239.483 66.5293 239.429 67.4346 239.377L71.8866 243.829H216.537L222.139 238.228C223.059 238.258 223.967 238.291 224.872 238.322L217.365 245.829Z" fill="white"/>
<path d="M272.84 241.355H245.808V239.355H247.7C257.879 239.933 266.412 240.608 272.84 241.355Z" fill="white"/>
<path d="M228.107 315.975H9.85585L4.08398 310.203C4.95638 310.145 5.84079 310.089 6.74292 310.033L10.684 313.975H227.371C228.389 314.352 228.917 314.74 228.917 315.133C228.917 315.419 228.643 315.699 228.107 315.975Z" fill="white"/>
<path d="M222.067 186.929C221.143 186.908 220.219 186.887 219.305 186.863L227.236 178.933H355.045C354.957 179.252 354.911 179.587 354.911 179.932C354.911 180.279 354.959 180.615 355.045 180.933H228.064L222.067 186.929Z" fill="white"/>
<path d="M358.671 183.692C356.941 183.692 355.484 182.524 355.045 180.933C354.959 180.615 354.911 180.279 354.911 179.932C354.911 179.587 354.957 179.252 355.045 178.933C355.484 177.341 356.941 176.172 358.671 176.172C360.747 176.172 362.431 177.856 362.431 179.932C362.431 182.009 360.747 183.692 358.671 183.692Z" fill="white"/>
<path d="M163.94 177.309C163.055 177.263 162.157 177.216 161.251 177.171L162.499 175.923C163.496 175.835 164.527 175.748 165.587 175.664L163.94 177.309Z" fill="white"/>
<path d="M198.668 180.376C197.909 180.249 197.091 180.123 196.219 179.999L202.545 173.671C203.511 173.636 204.492 173.603 205.475 173.569L198.668 180.376Z" fill="white"/>
<path d="M11.784 230.341C10.8611 230.319 9.93454 230.298 9.02307 230.274L16.8611 222.436H183.735L184.589 221.58C185.471 221.78 186.213 221.981 186.812 222.187L184.563 224.436H52.4933L50.8075 222.749L49.3929 224.163L49.6657 224.436H17.6892L11.784 230.341Z" fill="white"/>
<path d="M58.9427 230.886C57.996 230.884 57.0533 230.883 56.1107 230.881L49.6657 224.436L49.3929 224.163L50.8075 222.749L52.4933 224.436L58.9427 230.886Z" fill="white"/>
<path d="M-10.1926 229.674C-11.1103 229.639 -12.0134 229.604 -12.9144 229.568L-0.206698 216.86C0.758502 216.829 1.72877 216.8 2.7085 216.772L-10.1926 229.674Z" fill="white"/>
<path d="M294.208 283.029C293.279 283.008 292.363 282.987 291.444 282.964L299.277 275.132H337.973L337.535 275.569L338.949 276.984L340.801 275.132H430.652L436.581 281.062C435.709 281.119 434.821 281.174 433.92 281.228L429.824 277.132H300.105L294.208 283.029Z" fill="white"/>
<path d="M271.191 281.22H247.76C238.168 280.634 230.197 279.96 224.267 279.22H270.363L280.055 269.528C281.017 269.498 281.995 269.468 282.972 269.439L271.191 281.22Z" fill="white"/>
<path d="M338.949 276.984L337.535 275.569L337.973 275.132L344.46 268.644C345.403 268.645 346.344 268.648 347.281 268.651L340.801 275.132L338.949 276.984Z" fill="white"/>
<path d="M343.529 62.0734L340.623 59.1668H202.808L194.619 50.9761C195.541 50.9588 196.463 50.9414 197.395 50.9241L203.636 57.1668H233.952L233.82 57.2988L235.235 58.7121L236.78 57.1668H341.451L346.116 61.8307C345.281 61.9121 344.415 61.9934 343.529 62.0734Z" fill="white"/>
<path d="M178.116 58.6774H142.155L136.749 53.2721C137.617 53.2108 138.5 53.1521 139.399 53.0934L142.983 56.6774H178.116C178.028 56.9961 177.981 57.3308 177.981 57.6774C177.981 58.0241 178.028 58.3588 178.116 58.6774Z" fill="white"/>
<path d="M181.741 61.4374C180.012 61.4374 178.555 60.2681 178.116 58.6774C178.028 58.3588 177.981 58.0241 177.981 57.6774C177.981 57.3308 178.028 56.9961 178.116 56.6774C178.555 55.0868 180.012 53.9175 181.741 53.9175C183.817 53.9175 185.501 55.6014 185.501 57.6774C185.501 59.7534 183.817 61.4374 181.741 61.4374Z" fill="white"/>
<path d="M235.235 58.7121L233.82 57.2988L233.952 57.1668L240.521 50.5974C241.465 50.6001 242.403 50.6028 243.341 50.6054L236.78 57.1668L235.235 58.7121Z" fill="white"/>
<path d="M259.607 34.3414C258.685 34.3134 257.772 34.2841 256.865 34.2547L264.523 26.5974H393.611L398.337 21.8694C399.248 21.9108 400.151 21.9521 401.04 21.9948L394.439 28.5974H265.352L259.607 34.3414Z" fill="white"/>
<path d="M111.203 82.7841C110.285 82.7521 109.376 82.7188 108.473 82.6855L115.807 75.3521H305.072C305.928 75.6988 306.371 76.0534 306.371 76.4148C306.371 76.7321 306.029 77.0455 305.364 77.3521H145.023L143.493 75.8228L142.079 77.2361L142.195 77.3521H116.635L111.203 82.7841Z" fill="white"/>
<path d="M151.375 83.7041C150.417 83.6921 149.46 83.6801 148.511 83.6668L142.195 77.3521L142.079 77.2361L143.493 75.8228L145.023 77.3521L151.375 83.7041Z" fill="white"/>
<path d="M95.4187 72.0041H74.2827C80.7587 71.4948 88.3254 71.0334 96.788 70.6348L95.4187 72.0041Z" fill="white"/>
</g>
</svg>
