<svg width="40" height="40" viewBox="0 0 40 40" fill="none" xmlns="http://www.w3.org/2000/svg">
<rect width="40" height="40" rx="8" fill="#FDFDFF"/>
<path d="M14.1635 18.4357L12.2043 23.5534V23.5538C12.6837 25.4294 13.7375 27.0875 15.2293 28.3382L17.6875 27.4356C15.0765 25.1454 13.7877 21.7769 14.1635 18.4357Z" fill="url(#paint0_linear)"/>
<path d="M11.5409 25.2858L10.0392 29.2071C9.85972 29.6754 10.3276 30.1387 10.8094 29.9613L13.9776 28.7981C12.915 27.7881 12.0906 26.5844 11.5409 25.2858Z" fill="url(#paint1_linear)"/>
<path d="M18.3636 17.9585L16.1303 15.7715C14.3197 19.7714 15.5575 24.3432 18.9739 26.9634L21.3575 26.0881C19.2641 23.971 18.1318 21.016 18.3636 17.9585Z" fill="url(#paint2_linear)"/>
<path d="M19.5318 19.1026C19.6235 21.5888 20.7292 23.9382 22.5999 25.6315H22.6003L24.3473 24.9901C24.7553 24.8401 24.867 24.3273 24.5603 24.0269L19.5318 19.1026Z" fill="url(#paint3_linear)"/>
<path d="M23.9017 20.9433C24.1353 21.1721 24.5142 21.1721 24.7478 20.9433C26.9987 18.7391 29.1904 19.4206 29.2123 19.4277C29.5258 19.53 29.8646 19.3641 29.9691 19.0571C30.0737 18.7502 29.9042 18.4183 29.5907 18.316C29.4727 18.2775 26.6697 17.4041 23.9017 20.1148C23.668 20.3435 23.668 20.7146 23.9017 20.9433Z" fill="url(#paint4_linear)"/>
<path d="M20.0942 16.3861C22.8623 13.6757 21.9701 10.9305 21.931 10.8149C21.8265 10.5079 21.4874 10.3423 21.1739 10.4446C20.8608 10.547 20.6913 10.8786 20.7958 11.1856C20.803 11.2071 21.499 13.3534 19.2478 15.5576C19.0156 15.785 19.0133 16.1557 19.2478 16.3861C19.4827 16.616 19.8612 16.6142 20.0942 16.3861Z" fill="url(#paint5_linear)"/>
<path d="M21.3633 17.629C21.1297 17.8578 21.1297 18.2287 21.3633 18.4575C21.5948 18.6843 21.971 18.6873 22.2059 18.461C22.515 18.3102 23.4743 18.8759 24.0075 18.354C24.5349 17.8374 23.9745 16.9171 24.1145 16.5945C24.4443 16.4571 25.3838 17.0061 25.9112 16.4897C26.4388 15.9731 25.8784 15.0528 26.0183 14.7302C26.3486 14.5927 27.2876 15.1418 27.815 14.6253C28.3425 14.1088 27.7821 13.1884 27.9221 12.8658C28.2504 12.7291 29.1918 13.2769 29.7189 12.7609C30.2518 12.239 29.6752 11.2978 29.8281 10.9967C30.0583 10.7677 30.057 10.3993 29.8246 10.1716C29.591 9.9428 29.2121 9.9428 28.9785 10.1716C28.5069 10.6334 28.5991 11.2854 28.688 11.7515C28.212 11.6645 27.5463 11.5741 27.0747 12.0359C26.6031 12.4977 26.6954 13.1497 26.7842 13.6158C26.3083 13.5288 25.6425 13.4384 25.1709 13.9002C24.6994 14.3621 24.7916 15.014 24.8805 15.4801C24.4044 15.3931 23.7387 15.3027 23.2672 15.7645C22.7956 16.2264 22.8879 16.8783 22.9767 17.3444C22.5007 17.2575 21.8349 17.1672 21.3633 17.629Z" fill="url(#paint6_linear)"/>
<path d="M24.7478 12.6573C24.9815 12.4285 24.9815 12.0575 24.7478 11.8287C24.5142 11.5999 24.1354 11.5999 23.9017 11.8287C23.6681 12.0575 23.6681 12.4285 23.9017 12.6573C24.1354 12.8861 24.5142 12.8861 24.7478 12.6573Z" fill="url(#paint7_linear)"/>
<path d="M28.5553 16.972C28.8858 16.972 29.1536 16.7097 29.1536 16.3861C29.1536 16.0625 28.8858 15.8002 28.5553 15.8002C28.2249 15.8002 27.957 16.0625 27.957 16.3861C27.957 16.7097 28.2249 16.972 28.5553 16.972Z" fill="url(#paint8_linear)"/>
<path d="M27.2861 21.772C27.0525 22.0008 27.0525 22.3717 27.2861 22.6005C27.5198 22.8294 27.8986 22.8294 28.1323 22.6005C28.3659 22.3717 28.3659 22.0008 28.1323 21.772C27.8986 21.5431 27.5198 21.5431 27.2861 21.772Z" fill="url(#paint9_linear)"/>
<path d="M18.825 13.486C19.0587 13.2572 19.0587 12.8863 18.825 12.6575C18.5913 12.4286 18.2125 12.4286 17.9789 12.6575C17.7452 12.8862 17.7452 13.2572 17.9789 13.486C18.2125 13.7148 18.5914 13.7148 18.825 13.486Z" fill="url(#paint10_linear)"/>
<defs>
<linearGradient id="paint0_linear" x1="12.1434" y1="22.0954" x2="17.6875" y2="22.0966" gradientUnits="userSpaceOnUse">
<stop stop-color="#7533B8"/>
<stop offset="1" stop-color="#56268C"/>
</linearGradient>
<linearGradient id="paint1_linear" x1="9.9558" y1="27.028" x2="13.9776" y2="27.0294" gradientUnits="userSpaceOnUse">
<stop stop-color="#7533B8"/>
<stop offset="1" stop-color="#56268C"/>
</linearGradient>
<linearGradient id="paint2_linear" x1="15.2321" y1="19.9077" x2="21.3575" y2="19.9091" gradientUnits="userSpaceOnUse">
<stop stop-color="#7533B8"/>
<stop offset="1" stop-color="#56268C"/>
</linearGradient>
<linearGradient id="paint3_linear" x1="19.474" y1="21.5155" x2="24.7355" y2="21.5172" gradientUnits="userSpaceOnUse">
<stop stop-color="#7533B8"/>
<stop offset="1" stop-color="#56268C"/>
</linearGradient>
<linearGradient id="paint4_linear" x1="23.6567" y1="19.2469" x2="30" y2="19.2525" gradientUnits="userSpaceOnUse">
<stop stop-color="#7533B8"/>
<stop offset="1" stop-color="#56268C"/>
</linearGradient>
<linearGradient id="paint5_linear" x1="19.0392" y1="12.6848" x2="22.0985" y2="12.6854" gradientUnits="userSpaceOnUse">
<stop stop-color="#7533B8"/>
<stop offset="1" stop-color="#56268C"/>
</linearGradient>
<linearGradient id="paint6_linear" x1="21.0902" y1="13.189" x2="29.9998" y2="13.1928" gradientUnits="userSpaceOnUse">
<stop stop-color="#7533B8"/>
<stop offset="1" stop-color="#56268C"/>
</linearGradient>
<linearGradient id="paint7_linear" x1="23.7132" y1="12.0902" x2="24.9231" y2="12.0907" gradientUnits="userSpaceOnUse">
<stop stop-color="#7533B8"/>
<stop offset="1" stop-color="#56268C"/>
</linearGradient>
<linearGradient id="paint8_linear" x1="27.9437" y1="16.2332" x2="29.1536" y2="16.2337" gradientUnits="userSpaceOnUse">
<stop stop-color="#7533B8"/>
<stop offset="1" stop-color="#56268C"/>
</linearGradient>
<linearGradient id="paint9_linear" x1="27.0976" y1="22.0334" x2="28.3075" y2="22.0339" gradientUnits="userSpaceOnUse">
<stop stop-color="#7533B8"/>
<stop offset="1" stop-color="#56268C"/>
</linearGradient>
<linearGradient id="paint10_linear" x1="17.7904" y1="12.9189" x2="19.0002" y2="12.9194" gradientUnits="userSpaceOnUse">
<stop stop-color="#7533B8"/>
<stop offset="1" stop-color="#56268C"/>
</linearGradient>
</defs>
</svg>
