<svg width="74" height="74" viewBox="0 0 74 74" fill="none" xmlns="http://www.w3.org/2000/svg">
<rect width="74" height="74" rx="8" fill="#FEEEE5"/>
<path d="M53.9367 62.5535L45.0482 53.6665L40.7397 57.975C40.3678 58.3469 39.8278 58.5001 39.313 58.3811C38.7982 58.2591 38.3846 57.8812 38.218 57.3799L29.5996 31.5261C29.4166 30.9785 29.5594 30.3745 29.9671 29.9669C30.3732 29.5607 30.9787 29.4119 31.5263 29.5994L57.3801 38.2178C57.8815 38.3845 58.2593 38.798 58.3813 39.3128C58.5019 39.8261 58.3486 40.3661 57.9752 40.7395L53.6667 45.048L62.5537 53.9364C63.1488 54.5315 63.1488 55.4956 62.5537 56.0907L56.091 62.5534C55.4958 63.1487 54.5318 63.1487 53.9367 62.5535Z" fill="#FA7328"/>
<path d="M30.8047 23.1875C29.9626 23.1875 29.2812 22.5061 29.2812 21.6641V12.5234C29.2812 11.6814 29.9626 11 30.8047 11C31.6467 11 32.3281 11.6814 32.3281 12.5234V21.6641C32.3281 22.5061 31.6467 23.1875 30.8047 23.1875Z" fill="#FA7328"/>
<path d="M23.2649 25.419L16.8007 18.9548C16.2056 18.3597 16.2056 17.3956 16.8007 16.8005C17.3957 16.2055 18.3598 16.2055 18.9549 16.8005L25.4191 23.2647C26.0141 23.8597 26.0141 24.8238 25.4191 25.4189C24.824 26.0141 23.86 26.0141 23.2649 25.419Z" fill="#FA7328"/>
<path d="M16.8007 44.8086C16.2056 44.2136 16.2056 43.2495 16.8007 42.6544L23.2648 36.1902C23.8599 35.5952 24.824 35.5952 25.4191 36.1902C26.0141 36.7853 26.0141 37.7494 25.4191 38.3445L18.9549 44.8086C18.3598 45.4037 17.3958 45.4037 16.8007 44.8086Z" fill="#FA7328"/>
<path d="M36.1902 25.419C35.5952 24.8239 35.5952 23.8598 36.1902 23.2647L42.6544 16.8006C43.2495 16.2055 44.2136 16.2055 44.8086 16.8006C45.4037 17.3957 45.4037 18.3598 44.8086 18.9548L38.3445 25.419C37.7494 26.014 36.7854 26.014 36.1902 25.419Z" fill="#FA7328"/>
<path d="M21.6641 32.3281H12.5235C11.6814 32.3281 11.0001 31.6467 11.0001 30.8047C11.0001 29.9626 11.6814 29.2812 12.5235 29.2812H21.6641C22.5062 29.2812 23.1876 29.9626 23.1876 30.8047C23.1876 31.6467 22.5062 32.3281 21.6641 32.3281Z" fill="#FA7328"/>
</svg>
