<svg width="74" height="74" viewBox="0 0 74 74" fill="none" xmlns="http://www.w3.org/2000/svg">
<rect width="74" height="74" rx="8" fill="#FEEEE5"/>
<path d="M22.6007 32.9331L17.6123 46.239V46.2401C18.833 51.1168 21.5161 55.4278 25.3143 58.6797L31.5732 56.3327C24.9253 50.3784 21.644 41.6202 22.6007 32.9331Z" fill="#FA7328"/>
<path d="M15.9234 50.7431L12.0998 60.9383C11.6428 62.156 12.8341 63.3605 14.0609 62.8994L22.1275 59.875C19.4218 57.249 17.323 54.1194 15.9234 50.7431Z" fill="#FA7328"/>
<path d="M33.2946 31.6921L27.6085 26.006C22.9982 36.4056 26.15 48.2922 34.8484 55.1049L40.9174 52.829C35.5874 47.3247 32.7045 39.6417 33.2946 31.6921Z" fill="#FA7328"/>
<path d="M36.2692 34.6667C36.5027 41.1308 39.3179 47.2394 44.0809 51.6419H44.0819L48.5301 49.9743C49.569 49.5843 49.8533 48.2509 49.0724 47.4699L36.2692 34.6667Z" fill="#FA7328"/>
<path d="M47.3955 39.4526C47.9904 40.0475 48.9549 40.0475 49.5498 39.4526C55.2808 33.7216 60.8613 35.4934 60.917 35.5119C61.7151 35.7779 62.5779 35.3466 62.8439 34.5484C63.1101 33.7505 62.6786 32.8876 61.8805 32.6215C61.5801 32.5215 54.4433 30.2505 47.3956 37.2983C46.8006 37.8931 46.8005 38.8578 47.3955 39.4526Z" fill="#FA7328"/>
<path d="M37.7012 27.6035C44.7492 20.5565 42.4774 13.4191 42.3778 13.1185C42.1118 12.3203 41.2485 11.8897 40.4503 12.1558C39.6531 12.4218 39.2215 13.2841 39.4875 14.0823C39.5058 14.1381 41.278 19.7187 35.5461 25.4495C34.955 26.0406 34.949 27.0045 35.5461 27.6035C36.1442 28.2015 37.1079 28.1968 37.7012 27.6035Z" fill="#FA7328"/>
<path d="M40.9325 30.8353C40.3375 31.4302 40.3375 32.3947 40.9325 32.9896C41.5219 33.5792 42.4797 33.5869 43.0777 32.9987C43.8647 32.6066 46.3073 34.0773 47.6648 32.7203C49.0077 31.3773 47.5809 28.9843 47.9373 28.1457C48.7771 27.7884 51.1691 29.2159 52.512 27.8731C53.8552 26.5301 52.4283 24.1372 52.7847 23.2984C53.6257 22.941 56.0164 24.3687 57.3593 23.0258C58.7025 21.6829 57.2756 19.2899 57.632 18.4511C58.468 18.0956 60.8647 19.52 62.2068 18.1785C63.5636 16.8214 62.0957 14.3744 62.4849 13.5915C63.0709 12.9959 63.0677 12.0382 62.4759 11.4462C61.8811 10.8513 60.9165 10.8513 60.3216 11.4462C59.1209 12.6469 59.3558 14.342 59.5819 15.5538C58.3701 15.3277 56.6751 15.0928 55.4744 16.2934C54.2737 17.4941 54.5086 19.1891 54.7348 20.401C53.5229 20.1749 51.8277 19.9398 50.6271 21.1406C49.4264 22.3413 49.6614 24.0364 49.8876 25.2483C48.6755 25.0221 46.9805 24.7871 45.7799 25.9878C44.5792 27.1885 44.8141 28.8836 45.0403 30.0955C43.8283 29.8695 42.1331 29.6346 40.9325 30.8353Z" fill="#FA7328"/>
<path d="M49.5498 17.9092C50.1448 17.3143 50.1448 16.3498 49.5498 15.7549C48.9549 15.16 47.9904 15.16 47.3955 15.7549C46.8006 16.3498 46.8006 17.3143 47.3955 17.9092C47.9904 18.5041 48.9549 18.5041 49.5498 17.9092Z" fill="#FA7328"/>
<path d="M59.2443 29.1271C60.0856 29.1271 60.7676 28.4451 60.7676 27.6038C60.7676 26.7625 60.0856 26.0804 59.2443 26.0804C58.403 26.0804 57.7209 26.7625 57.7209 27.6038C57.7209 28.4451 58.403 29.1271 59.2443 29.1271Z" fill="#FA7328"/>
<path d="M56.0128 41.607C55.4179 42.2019 55.4179 43.1664 56.0128 43.7613C56.6077 44.3562 57.5722 44.3562 58.1671 43.7613C58.762 43.1664 58.762 42.2019 58.1671 41.607C57.5723 41.0121 56.6077 41.0121 56.0128 41.607Z" fill="#FA7328"/>
<path d="M34.4695 20.0635C35.0644 19.4686 35.0644 18.5041 34.4695 17.9092C33.8745 17.3143 32.9101 17.3143 32.3151 17.9092C31.7202 18.504 31.7202 19.4686 32.3151 20.0635C32.9101 20.6584 33.8746 20.6584 34.4695 20.0635Z" fill="#FA7328"/>
</svg>
