<svg width="74" height="74" viewBox="0 0 74 74" fill="none" xmlns="http://www.w3.org/2000/svg">
<rect width="74" height="74" rx="8" fill="#FEEEE5"/>
<path d="M56.7959 26.2913C57.1146 26.2913 57.4333 26.1693 57.6773 25.9278L62.6569 20.9482C63.1424 20.4627 63.1424 19.6735 62.6569 19.188C62.1739 18.7024 61.3822 18.7024 60.8966 19.188L55.9171 24.1675C55.4315 24.6531 55.4315 25.4423 55.9171 25.9278C56.1586 26.1718 56.4773 26.2913 56.7959 26.2913Z" fill="#FA7328"/>
<path d="M57.6773 44.0859C57.1943 43.6004 56.4025 43.6004 55.917 44.0859C55.434 44.5714 55.434 45.3607 55.917 45.8462L60.8966 50.8258C61.1431 51.0698 61.4618 51.1893 61.778 51.1893C62.0942 51.1893 62.4154 51.0673 62.6594 50.8258C63.1424 50.3403 63.1424 49.551 62.6594 49.0655L57.6773 44.0859Z" fill="#FA7328"/>
<path d="M66.7551 33.7632H59.2857C58.601 33.7632 58.0408 34.3209 58.0408 35.0081C58.0408 35.6953 58.601 36.253 59.2857 36.253H66.7551C67.4398 36.253 68 35.6953 68 35.0081C68 34.3209 67.4398 33.7632 66.7551 33.7632Z" fill="#FA7328"/>
<path d="M21.9388 43.7224V26.2938H15.7143C10.909 26.2938 7 30.2028 7 35.0081C7 39.8134 10.909 43.7224 15.7143 43.7224H21.9388Z" fill="#FA7328"/>
<path d="M44.693 14.049C44.1527 13.8946 43.585 14.1137 43.2912 14.5843C39.0984 21.2794 32.1569 25.4697 24.4286 26.1519V43.8618C32.1569 44.5415 39.1059 48.7343 43.2912 55.4294C43.5228 55.8004 43.9261 56.0145 44.3469 56.0145C44.4615 56.0145 44.576 55.9996 44.693 55.9622C45.2233 55.8078 45.5918 55.3223 45.5918 54.7696V15.2441C45.5918 14.6889 45.2283 14.2009 44.693 14.049Z" fill="#FA7328"/>
<path d="M48.0816 27.9943V42.0193C50.9773 40.9886 53.0612 38.2523 53.0612 35.0081C53.0612 31.7639 50.9773 29.0251 48.0816 27.9943Z" fill="#FA7328"/>
<path d="M17.0214 56.7989C17.3202 58.5591 18.844 59.9061 20.6939 59.9061C22.5438 59.9061 24.0651 58.5591 24.3663 56.7989L26.0992 46.5733H15.2885L17.0214 56.7989Z" fill="#FA7328"/>
</svg>
