<svg width="74" height="74" viewBox="0 0 74 74" fill="none" xmlns="http://www.w3.org/2000/svg">
<rect width="74" height="74" rx="8" fill="#FEEEE5"/>
<path d="M37 9C28.729 9 22 15.729 22 24C22 32.271 28.729 39 37 39C45.271 39 52 32.271 52 24C52 15.729 45.271 9 37 9Z" fill="#FA7328"/>
<path d="M55.6629 48.7995C51.5562 44.6297 46.1121 42.3333 40.3333 42.3333H33.6667C27.888 42.3333 22.4438 44.6297 18.3371 48.7995C14.2506 52.9488 12 58.4259 12 64.2222C12 65.1427 12.7462 65.8889 13.6667 65.8889H60.3333C61.2538 65.8889 62 65.1427 62 64.2222C62 58.4259 59.7494 52.9488 55.6629 48.7995Z" fill="#FA7328"/>
</svg>
