<svg width="40" height="40" viewBox="0 0 40 40" fill="none" xmlns="http://www.w3.org/2000/svg">
<rect width="40" height="40" rx="8" fill="#FDFDFF"/>
<path d="M12.9688 19.375C13.4415 19.375 13.8693 19.1853 14.1855 18.8808L15.92 19.7479C15.9113 19.8186 15.8984 19.888 15.8984 19.9609C15.8984 20.9302 16.687 21.7188 17.6562 21.7188C18.6255 21.7188 19.4141 20.9302 19.4141 19.9609C19.4141 19.6904 19.3475 19.4371 19.2378 19.2079L21.5907 16.855C21.8199 16.9647 22.0732 17.0312 22.3438 17.0312C23.313 17.0312 24.1016 16.2427 24.1016 15.2734C24.1016 15.0909 24.0657 14.9184 24.0138 14.7528L26.0582 13.2199C26.3371 13.4062 26.6714 13.5156 27.0312 13.5156C28.0005 13.5156 28.7891 12.7271 28.7891 11.7578C28.7891 10.7886 28.0005 10 27.0312 10C26.062 10 25.2734 10.7886 25.2734 11.7578C25.2734 11.9403 25.3093 12.1129 25.3612 12.2784L23.3168 13.8113C23.0379 13.625 22.7036 13.5156 22.3438 13.5156C21.3745 13.5156 20.5859 14.3042 20.5859 15.2734C20.5859 15.544 20.6525 15.7973 20.7622 16.0265L18.4093 18.3794C18.1801 18.2697 17.9268 18.2031 17.6562 18.2031C17.1835 18.2031 16.7557 18.3928 16.4395 18.6974L14.705 17.8302C14.7137 17.7596 14.7266 17.6901 14.7266 17.6172C14.7266 16.6479 13.938 15.8594 12.9688 15.8594C11.9995 15.8594 11.2109 16.6479 11.2109 17.6172C11.2109 18.5864 11.9995 19.375 12.9688 19.375Z" fill="url(#paint0_linear)"/>
<path d="M29.4141 28.8281H28.7891V16.4453C28.7891 16.1215 28.5269 15.8594 28.2031 15.8594H25.8594C25.5356 15.8594 25.2734 16.1215 25.2734 16.4453V28.8281H24.1016V19.9609C24.1016 19.6371 23.8394 19.375 23.5156 19.375H21.1719C20.8481 19.375 20.5859 19.6371 20.5859 19.9609V28.8281H19.4141V24.6484C19.4141 24.3246 19.1519 24.0625 18.8281 24.0625H16.4844C16.1606 24.0625 15.8984 24.3246 15.8984 24.6484V28.8281H14.7266V22.3047C14.7266 21.9809 14.4644 21.7188 14.1406 21.7188H11.7969C11.4731 21.7188 11.2109 21.9809 11.2109 22.3047V28.8281H10.5859C10.2621 28.8281 10 29.0903 10 29.4141C10 29.7379 10.2621 30 10.5859 30H29.4141C29.7379 30 30 29.7379 30 29.4141C30 29.0903 29.7379 28.8281 29.4141 28.8281Z" fill="url(#paint1_linear)"/>
<defs>
<linearGradient id="paint0_linear" x1="11.0156" y1="14.3308" x2="28.7891" y2="14.342" gradientUnits="userSpaceOnUse">
<stop stop-color="#7533B8"/>
<stop offset="1" stop-color="#56268C"/>
</linearGradient>
<linearGradient id="paint1_linear" x1="9.77778" y1="21.0853" x2="30" y2="21.0972" gradientUnits="userSpaceOnUse">
<stop stop-color="#7533B8"/>
<stop offset="1" stop-color="#56268C"/>
</linearGradient>
</defs>
</svg>
